<svg version="1.0" xmlns="http://www.w3.org/2000/svg" viewBox="0 0 300 300"><g fill="#ccc"><path d="M23 150v25h4c2 0 3 0 3-2s0-2 4-1l59 1h54l10-2c9-2 14-3 23-3l13-1 10-1c19 0 45-4 64-10 8-3 10-4 10-6s-1-3-15-7c-20-6-35-8-81-11l-24-3c-9-2-11-2-64-2a1507 1507 0 0 0-63 0c0-2-1-2-3-2h-4v25zm5-1-1 20c-2 0-2-3-2-20s0-20 2-20l1 20zm117 0v17H42v-35h103v18zm14-15 9 1v29h-7l-11 2h-3v-18c0-16 0-17 2-17l10 3zm-126 1 1-1 1 1v29l-1 1c0-3-2-2-2 0l-1-16c0-9 0-17 1-16l1 2zm157 15v13h-19v-27h19v14zm34-9c20 2 51 7 51 9 0 1-22 8-31 9-13 3-29 4-41 4h-10v-23h10l21 1z"/><path d="M43 137c0 2 1 2 8 2 10 0 16-2 6-2l-10-1-4 1zM134 137c-3 1-2 1 3 1l7-1h-10zM43 144l15 1 27-1h13l-13-1a1119 1119 0 0 0-42 1zM127 143l-11 1h14l14-1-4-1-14 1zM43 155v7h101v-15H43v8zM148 138l3 1c2 0 2 0 1-1h-4zM148 144l5 1c4 0 4 0 2-1h-7zM159 146h2l-2-1v1zM148 154v7h3l10-1h6v-11h-6l-10-2h-3v7zM32 149l1 12 1-12-1-12-1 12zM172 141l2 1h2l-2-1h-2zM172 146l4 1c3 0 4 0 3-1h-7zM172 155v4h17v-9h-17v5zM194 146l20 1c17 0 18 0 11-1h-31zM194 155c0 5-2 5 22 3l47-5 7-1-4-1-38-1h-34v5z"/></g></svg>